<svg xmlns="http://www.w3.org/2000/svg" width="25.97" height="22" viewBox="0 0 25.97 22">
  <defs>
    <style>
      .cls-1 {
        fill: #222;
        fill-rule: evenodd;
      }
    </style>
  </defs>
  <path id="cart" class="cls-1" d="M1023.7,51.8a2.1,2.1,0,1,0,2.17,2.1A2.135,2.135,0,0,0,1023.7,51.8Zm9.48,0a2.1,2.1,0,1,0,2.17,2.1A2.144,2.144,0,0,0,1033.18,51.8Zm5.45-11.518h-12.02a1.054,1.054,0,1,0,0,2.107h10.63l-0.67,2.211-0.6,1.961-0.64,2.068h-12.18l-0.81-6.241-0.77-6.08a1.213,1.213,0,0,0-.91-1l-5.14-1.27a1.218,1.218,0,0,0-1.48.852,1.17,1.17,0,0,0,.88,1.436l4.33,1.071,1.69,12.27a1.446,1.446,0,0,0,1.4,1.431h13.47a1.41,1.41,0,0,0,1.35-1.14l2.67-7.677S1040.62,40.279,1038.63,40.279Z" transform="translate(-1014 -34)"/>
</svg>
