<svg xmlns="http://www.w3.org/2000/svg" width="83.687" height="78.812" viewBox="0 0 83.687 78.812">
  <defs>
    <style>
      .cls-1 {
        fill: #6db33f;
        fill-rule: evenodd;
      }
    </style>
  </defs>
  <path id="Forma_1" data-name="Forma 1" class="cls-1" d="M1013.1,966.13a2.447,2.447,0,1,0,2.45,2.447A2.442,2.442,0,0,0,1013.1,966.13Zm-49.282-10.621a5.531,5.531,0,0,1,4.408,2.186,11.544,11.544,0,0,0,4.908,3.414,8.161,8.161,0,0,0,5.474-.606,2.42,2.42,0,0,1,3.281.974,2.5,2.5,0,0,1-.974,3.281c-2.352,1.531-7.081,1.622-9.188.982a12.987,12.987,0,0,1-2.37-1v11.811a5.526,5.526,0,0,1-2.143,4.375v21.661a3.4,3.4,0,1,1-6.793,0V980.929a5.53,5.53,0,0,1-2.143-4.375v-15.5A5.54,5.54,0,0,1,963.818,955.509Zm16.063,3.034c-1.9,0-2.591,1.056-4.416,1.056-1.031,0-2.23-.369-2.23-0.922v-3.926a2.485,2.485,0,0,1,2.482-2.482h7.126v3.24a0.425,0.425,0,0,0,.425.425H985.3a0.425,0.425,0,0,0,.425-0.425v-3.24h7.126a2.486,2.486,0,0,1,2.483,2.482V971.89a2.486,2.486,0,0,1-2.483,2.483H975.717a2.485,2.485,0,0,1-2.482-2.483v-3.414a0.425,0.425,0,0,1,.146-0.321,0.452,0.452,0,0,1,.337-0.1c8.065,0.648,11.759-3.649,9.907-7.283A4.178,4.178,0,0,0,979.881,958.543Zm16.747,36.53h3.442V939.534a2.548,2.548,0,0,1,2.55-2.548h29.69a2.548,2.548,0,0,1,2.55,2.548v55.539h3.44a1.7,1.7,0,0,1,1.7,1.7v6.019a1.7,1.7,0,0,1-1.7,1.69H996.628a1.7,1.7,0,0,1-1.7-1.69v-6.019A1.7,1.7,0,0,1,996.628,995.073Zm33.132-52.991h-24.6v52.99h24.6v-52.99ZM956.8,945.735a7.332,7.332,0,1,0,13.08-4.545v-7.831a8.312,8.312,0,1,0-11.493.282v7.549A7.292,7.292,0,0,0,956.8,945.735Z" transform="translate(-956.313 -927.188)"/>
</svg>
