<svg xmlns="http://www.w3.org/2000/svg" width="28" height="28" viewBox="0 0 28 28">
  <defs>
    <style>
      .cls-1 {
        fill: #999;
        fill-rule: evenodd;
      }
    </style>
  </defs>
  <path id="twitter" class="cls-1" d="M1247,1636a14,14,0,1,0,14,14A14.015,14.015,0,0,0,1247,1636Zm6.24,10.8c0.01,0.13.01,0.27,0.01,0.41a9.155,9.155,0,0,1-14.1,7.72,6.4,6.4,0,0,0,4.77-1.33,3.233,3.233,0,0,1-3.01-2.24,2.978,2.978,0,0,0,.6.06,3.355,3.355,0,0,0,.85-0.11,3.229,3.229,0,0,1-2.58-3.16v-0.04a3.245,3.245,0,0,0,1.46.4,3.2,3.2,0,0,1-1.43-2.68,3.162,3.162,0,0,1,.43-1.62,9.119,9.119,0,0,0,6.64,3.36,3.474,3.474,0,0,1-.08-0.73,3.219,3.219,0,0,1,5.57-2.2,6.714,6.714,0,0,0,2.05-.79,3.209,3.209,0,0,1-1.42,1.79,6.425,6.425,0,0,0,1.85-.51A6.554,6.554,0,0,1,1253.24,1646.8Z" transform="translate(-1233 -1636)"/>
</svg>
