<svg xmlns="http://www.w3.org/2000/svg" width="22.438" height="29.22" viewBox="0 0 22.438 29.22">
  <defs>
    <style>
      .cls-1 {
        fill: #696969;
        fill-rule: evenodd;
      }
    </style>
  </defs>
  <path id="Forma_1" data-name="Forma 1" class="cls-1" d="M506.628,1697.71h-0.569v-2.67a9.071,9.071,0,0,0-8.792-9.13,4.756,4.756,0,0,0-.534,0,9.071,9.071,0,0,0-8.792,9.13v2.67h-0.569a1.843,1.843,0,0,0-1.592,2.02v13.36a1.854,1.854,0,0,0,1.592,2.03h19.256a1.854,1.854,0,0,0,1.592-2.03v-13.36A1.843,1.843,0,0,0,506.628,1697.71Zm-7.824,8.69v4.04a0.86,0.86,0,0,1-.849.85h-1.91a0.86,0.86,0,0,1-.849-0.85v-4.04a2.445,2.445,0,0,1,1.537-4.16,4.756,4.756,0,0,1,.534,0A2.445,2.445,0,0,1,498.8,1706.4Zm3.506-8.69H491.69v-2.67a5.31,5.31,0,1,1,10.62,0v2.67Z" transform="translate(-485.781 -1685.91)"/>
</svg>
