<svg xmlns="http://www.w3.org/2000/svg" width="49.937" height="13.97" viewBox="0 0 49.937 13.97">
  <defs>
    <style>
      .cls-1 {
        fill: #999;
        fill-rule: evenodd;
      }
    </style>
  </defs>
  <path id="Forma_1" data-name="Forma 1" class="cls-1" d="M824,1699.3a2.062,2.062,0,0,0-.743-0.83,3.48,3.48,0,0,0-1.183-.44,8.446,8.446,0,0,0-1.606-.13h-2.842a0.71,0.71,0,0,0-.654.53l-1.913,8.6a0.41,0.41,0,0,0,.412.53h1.361a0.707,0.707,0,0,0,.653-0.53l0.467-2.09a0.7,0.7,0,0,1,.652-0.53H819a6.368,6.368,0,0,0,3.879-1.06,3.308,3.308,0,0,0,1.39-2.78A2.686,2.686,0,0,0,824,1699.3Zm-2.935,2.81a2.8,2.8,0,0,1-1.721.47h-0.332a0.42,0.42,0,0,1-.413-0.54l0.409-1.82a0.7,0.7,0,0,1,.649-0.54h0.446a2.129,2.129,0,0,1,1.184.27,0.943,0.943,0,0,1,.392.84A1.539,1.539,0,0,1,821.068,1702.11Zm18.709-1.12-5.423,9.46a1.144,1.144,0,0,1-.853.53h-1.409c-0.293,0-.389-0.24-0.211-0.53l1.206-2.17a1.46,1.46,0,0,0,.01-0.83c-0.185-1.28-1.11-6.71-1.11-6.71a0.413,0.413,0,0,1,.407-0.54h1.219a0.748,0.748,0,0,1,.741.55l0.607,3.77h0.226c0.19-.34,2.138-3.79,2.138-3.79a1.156,1.156,0,0,1,.857-0.54h1.631C840.3,1700.18,839.777,1700.99,839.777,1700.99Zm8.939-1.66a2.176,2.176,0,0,0-.749-0.83,3.208,3.208,0,0,0-1.183-.44,8.344,8.344,0,0,0-1.6-.13h-2.846a0.7,0.7,0,0,0-.65.53l-1.913,8.6a0.411,0.411,0,0,0,.41.53h1.363a0.713,0.713,0,0,0,.653-0.53l0.462-2.09a0.709,0.709,0,0,1,.653-0.53h0.391a6.335,6.335,0,0,0,3.887-1.05,3.364,3.364,0,0,0,1.383-2.79A2.84,2.84,0,0,0,848.716,1699.33Zm-2.935,2.82a2.865,2.865,0,0,1-1.717.46h-0.339a0.423,0.423,0,0,1-.416-0.54l0.412-1.82a0.689,0.689,0,0,1,.651-0.53l0.442-.01a2.206,2.206,0,0,1,1.184.28,0.946,0.946,0,0,1,.4.83A1.587,1.587,0,0,1,845.781,1702.15Zm-15.216-1.62a5.005,5.005,0,0,0-2.432-.45,11.457,11.457,0,0,0-1.647.13c-0.407.07-.447,0.08-0.7,0.14a0.81,0.81,0,0,0-.6.65l-0.167.7c-0.094.45,0.158,0.44,0.263,0.4a7.487,7.487,0,0,1,.813-0.25,5.554,5.554,0,0,1,1.275-.17,3.085,3.085,0,0,1,1.238.18,0.637,0.637,0,0,1,.411.63l-0.024.2-0.2.13c-0.772.05-1.33,0.12-2.008,0.22a6.174,6.174,0,0,0-1.725.49,2.689,2.689,0,0,0-1.172.96,2.629,2.629,0,0,0-.389,1.46,1.782,1.782,0,0,0,.554,1.34,2.035,2.035,0,0,0,1.434.5,3.712,3.712,0,0,0,.855-0.08l0.659-.23,0.558-.33,0.513-.34,0.007,0.01-0.052.22,0,0.01h0a0.423,0.423,0,0,0,.364.53h1.269l0.018-.01a0.7,0.7,0,0,0,.586-0.52l0.992-4.43,0.051-.36,0.024-.34A1.486,1.486,0,0,0,830.565,1700.53Zm-2.194,4.98-0.212.29-0.535.29a1.962,1.962,0,0,1-.711.16,1.5,1.5,0,0,1-.776-0.16l-0.262-.52a1.092,1.092,0,0,1,.2-0.69l0.577-.4a4.536,4.536,0,0,1,.9-0.21c0.311-.04.925-0.11,1.006-0.12l0.094,0.18C828.629,1704.42,828.455,1705.17,828.371,1705.51Zm33.98-8.09h0.455v0.19h-0.455v0.63l0,0.17,0.033,0.11,0.071,0.07,0.14,0.02,0.114-.01,0.085-.03h0.012v0.2l-0.137.03-0.13.01-0.308-.11-0.107-.36v-0.73h-0.153v-0.19h0.153v-0.39h0.225v0.39h0Zm-7.068,3.12a5.019,5.019,0,0,0-2.432-.45,10.142,10.142,0,0,0-1.645.13c-0.409.06-.45,0.08-0.7,0.13a0.819,0.819,0,0,0-.6.65l-0.166.71c-0.093.45,0.154,0.43,0.267,0.39a8.315,8.315,0,0,1,.807-0.24,5.612,5.612,0,0,1,1.279-.18,3.27,3.27,0,0,1,1.235.18,0.647,0.647,0,0,1,.411.64l-0.021.2-0.2.12a18.945,18.945,0,0,0-2.009.23,5.9,5.9,0,0,0-1.728.49,2.662,2.662,0,0,0-1.171.95,2.621,2.621,0,0,0-.389,1.46,1.758,1.758,0,0,0,.556,1.34,2.04,2.04,0,0,0,1.432.51,3.623,3.623,0,0,0,.854-0.09l0.658-.23,0.562-.32,0.509-.35,0.01,0.01-0.047.23h0a0.409,0.409,0,0,0,.362.53l0,0.01h1.263l0.02-.01a0.714,0.714,0,0,0,.579-0.53l1-4.43,0.051-.36,0.029-.34A1.475,1.475,0,0,0,855.283,1700.54Zm-2.19,4.98-0.22.29-0.531.28a1.78,1.78,0,0,1-.709.16,1.576,1.576,0,0,1-.774-0.15l-0.265-.52a1.136,1.136,0,0,1,.195-0.69,1.357,1.357,0,0,1,.583-0.4,4.441,4.441,0,0,1,.9-0.21c0.309-.04.922-0.12,1-0.12l0.1,0.17C853.351,1704.43,853.174,1705.18,853.093,1705.52Zm7.294-6.99h0l-1.822,8.52-0.066.1a0.7,0.7,0,0,1-.586.44h-1.267l-0.02-.03a0.4,0.4,0,0,1-.342-0.5v-0.01l0.054-.25,1.7-7.99,0.061-.27,0.068-.11a0.687,0.687,0,0,1,.585-0.43h1.219A0.413,0.413,0,0,1,860.387,1698.53Zm4.519-1.01,0.105,0.38v0.89H864.79v-0.78l-0.015-.17-0.027-.13-0.08-.08-0.147-.03-0.186.05-0.188.12,0,0.07,0,0.07v0.87h-0.22V1698l-0.01-.16-0.033-.13-0.076-.08-0.151-.03-0.182.05-0.185.11v1.02h-0.221v-1.36H863.3v0.15l0.209-.14,0.221-.05,0.23,0.06,0.142,0.16,0.243-.17,0.24-.05Z" transform="translate(-815.063 -1697.03)"/>
</svg>
