<svg xmlns="http://www.w3.org/2000/svg" width="39.188" height="39.18" viewBox="0 0 39.188 39.18">
  <defs>
    <style>
      .cls-1 {
        fill: #96272c;
        fill-rule: evenodd;
      }
    </style>
  </defs>
  <path id="Forma_1" data-name="Forma 1" class="cls-1" d="M261.5,1210.08a19.58,19.58,0,1,1,19.583-19.58A19.6,19.6,0,0,1,261.5,1210.08Zm0-36.93a17.345,17.345,0,1,0,17.345,17.35A17.372,17.372,0,0,0,261.5,1173.15Zm7.722,18.47H253.778a1.12,1.12,0,0,1,0-2.24h15.444A1.12,1.12,0,0,1,269.222,1191.62Zm-7.722,7.72a1.119,1.119,0,0,1-1.12-1.12v-15.44a1.119,1.119,0,1,1,2.238,0v15.44A1.117,1.117,0,0,1,261.5,1199.34Z" transform="translate(-241.906 -1170.91)"/>
</svg>
