<svg xmlns="http://www.w3.org/2000/svg" width="24.32" height="24.312" viewBox="0 0 24.32 24.312">
  <defs>
    <style>
      .cls-1 {
        fill: #96272c;
        fill-rule: evenodd;
      }
    </style>
  </defs>
  <path id="Forma_1_copy_15" data-name="Forma 1 copy 15" class="cls-1" d="M1108.5,579.642a12.142,12.142,0,1,1,12.14-12.142A12.151,12.151,0,0,1,1108.5,579.642Zm4.79-11.449h-9.58a0.694,0.694,0,0,1,0-1.388h9.58A0.694,0.694,0,0,1,1113.29,568.193Zm-4.79,4.787a0.692,0.692,0,0,1-.69-0.693v-9.575a0.69,0.69,0,1,1,1.38,0v9.575A0.691,0.691,0,0,1,1108.5,572.98Z" transform="translate(-1096.34 -555.344)"/>
</svg>
