<svg xmlns="http://www.w3.org/2000/svg" width="24.5" height="21.25" viewBox="0 0 24.5 21.25">
  <defs>
    <style>
      .cls-1 {
        fill: #fff;
        fill-rule: evenodd;
      }
    </style>
  </defs>
  <path id="Forma_1" data-name="Forma 1" class="cls-1" d="M166.958,248.425l-2.569-.014-2.461-3.674a0.816,0.816,0,0,0-.673-0.377h-6.631a0.811,0.811,0,0,0-.659.363l-2.542,3.688-2.381.014a3.3,3.3,0,0,0-3.282,3.284v10.62a3.32,3.32,0,0,0,3.282,3.311h17.916a3.32,3.32,0,0,0,3.282-3.311v-10.62A3.3,3.3,0,0,0,166.958,248.425Zm1.668,13.9a1.7,1.7,0,0,1-1.668,1.7H149.042a1.7,1.7,0,0,1-1.668-1.7v-10.62a1.677,1.677,0,0,1,1.668-1.669h2.811a0.811,0.811,0,0,0,.659-0.363l2.542-3.688h5.771l2.448,3.661a0.83,0.83,0,0,0,.659.363l3.013,0.027a1.677,1.677,0,0,1,1.667,1.669v10.62h0.014Zm-10.559-11.966a5.721,5.721,0,1,0,5.717,5.72A5.722,5.722,0,0,0,158.067,250.363Zm0,9.826a4.106,4.106,0,1,1,4.1-4.106A4.112,4.112,0,0,1,158.067,260.189Zm7.654-7.767a0.31,0.31,0,1,1-.31.31A0.31,0.31,0,0,1,165.721,252.422Zm0-.807a1.117,1.117,0,1,0,1.116,1.117A1.114,1.114,0,0,0,165.721,251.615Zm0,1.615a0.5,0.5,0,0,1-.5-0.5,0.5,0.5,0,1,1,.995,0A0.5,0.5,0,0,1,165.721,253.23Z" transform="translate(-145.75 -244.375)"/>
</svg>
