<svg id="chef_cook" data-name="chef cook" xmlns="http://www.w3.org/2000/svg" width="52.344" height="84.342" viewBox="0 0 52.344 84.342">
  <defs>
    <style>
      .cls-1 {
        fill: #6db33f;
        fill-rule: evenodd;
      }
    </style>
  </defs>
  <path id="Forma_1" data-name="Forma 1" class="cls-1" d="M903.65,978.218a4.419,4.419,0,0,0,.265-5.29l-5.215-7.2a6.721,6.721,0,0,0-4.592-2.751h-2.6a8.125,8.125,0,0,1,1.5,1.3l3.634,4.142a12.032,12.032,0,0,1,2.661,7.07v7.62Zm-30.931,1.054,2.158-2.819v9.475l9.023,0.3v14.4h14.4l-0.211-24.952a10.432,10.432,0,0,0-2.24-5.949l-3.632-4.142a8.537,8.537,0,0,0-5.638-2.552h-8.3a3.385,3.385,0,0,0-2.973,1.783,3.607,3.607,0,0,0-.4.427l-7.06,9.221-11.437-2.321a3.4,3.4,0,1,0-1.351,6.659l12.272,2.491A5.933,5.933,0,0,0,872.719,979.272Zm17.369-8.049a1.422,1.422,0,1,1-1.422,1.421A1.422,1.422,0,0,1,890.088,971.223Zm0,5.762a1.422,1.422,0,1,1-1.422,1.423A1.422,1.422,0,0,1,890.088,976.985ZM881,971.223a1.422,1.422,0,1,1-1.423,1.421A1.422,1.422,0,0,1,881,971.223Zm0,5.762a1.422,1.422,0,1,1-1.423,1.423A1.423,1.423,0,0,1,881,976.985Zm-6.229-25.792a10.475,10.475,0,1,0,18.685-6.493V933.512a7.089,7.089,0,0,0-11.579-6.939,4.519,4.519,0,1,0-4.839,7.342V944.7A10.419,10.419,0,0,0,874.767,951.193Z" transform="translate(-852.344 -924.688)"/>
  <path id="Forma_1-2" data-name="Forma 1" class="cls-1" d="M884.7,1001.87h-29.6v7.16h45.587v-7.16H884.7Zm-12.118-15.738-2.951,5.078h-7.012v1.162h-1.27a0.773,0.773,0,1,0,0,1.546h1.27v6.582h18.148v-6.582h1.268a0.773,0.773,0,1,0,0-1.546h-1.268V991.21H870.628l2.79-4.8c0.13,0.043.269,0.089,0.4,0.128,4.405,1.433,10.946,1.949,1.65,1.949a5.351,5.351,0,0,1-1.661-.275c-0.088-.027-0.19-0.062-0.276-0.09l-1.233,2h9.453v1.162h0.327a1.708,1.708,0,1,1,0,3.416h-0.327v6.082h5.283S895.422,980.116,872.584,986.132Zm-4.763-.084-0.016,4.072h1.321l1.752-2.9C869.911,986.878,868.85,986.492,867.821,986.048Zm-6.669-1.633a2.209,2.209,0,0,0,.1,1.172,3.231,3.231,0,0,0,.6.965c0.261,0.275.514,0.474,0.7,0.682a2.547,2.547,0,0,1,.488.662,0.816,0.816,0,0,1,.026.707,1.921,1.921,0,0,1-.6.717,1.553,1.553,0,0,0,.976-0.456,1.284,1.284,0,0,0,.3-1.174,3.878,3.878,0,0,0-1.2-1.759,2.207,2.207,0,0,1-.678-1.438,3.158,3.158,0,0,1,.6-1.708A2.3,2.3,0,0,0,861.152,984.415Zm3.5,2.211a1.487,1.487,0,0,0,.069.789,2.212,2.212,0,0,0,.409.651c0.177,0.189.347,0.325,0.475,0.463a1.747,1.747,0,0,1,.331.449,0.547,0.547,0,0,1,.016.476,1.27,1.27,0,0,1-.4.486,1.056,1.056,0,0,0,.661-0.309,0.879,0.879,0,0,0,.2-0.795,2.635,2.635,0,0,0-.808-1.191,1.477,1.477,0,0,1-.459-0.973,2.114,2.114,0,0,1,.407-1.158A1.566,1.566,0,0,0,864.649,986.626Z" transform="translate(-852.344 -924.688)"/>
</svg>
