<svg id="delivery_at_chef" data-name="delivery at chef" xmlns="http://www.w3.org/2000/svg" width="88" height="88" viewBox="0 0 87.81 86.842">
  <defs>
    <style>
      .cls-1 {
        fill: #cfcfcf;
        fill-rule: evenodd;
      }
    </style>
  </defs>
  <path id="Forma_1" data-name="Forma 1" class="cls-1" d="M1097.11,936.351a6.916,6.916,0,1,1-6.91,6.916A6.911,6.911,0,0,1,1097.11,936.351Zm20.7,27.4a2.982,2.982,0,0,0-3.7-1.972,9.514,9.514,0,0,1-6.71-.612,14.818,14.818,0,0,1-4.97-5.146c-1.23-1.917-2.95-3.448-5.32-3.448a5.818,5.818,0,0,0-5.82,5.823v18.3a5.809,5.809,0,0,0,2.65,4.886V1007.6a3.17,3.17,0,0,0,6.34,0V981.579a5.809,5.809,0,0,0,2.65-4.886v-11.35a15.942,15.942,0,0,0,1.65,1.033,14.377,14.377,0,0,0,6.87,1.643,16.267,16.267,0,0,0,4.39-.573A2.957,2.957,0,0,0,1117.81,963.747Zm10.5-10.309h-5.6a0.162,0.162,0,0,0-.16.167v3.118a0.442,0.442,0,0,1-.44.439h-2.76a0.442,0.442,0,0,1-.44-0.439v-3.118a0.162,0.162,0,0,0-.16-0.167h-5.61a2.254,2.254,0,0,0-2.25,2.253v3.769a0.164,0.164,0,0,0,.13.163,4.94,4.94,0,0,0,1.09.1,20.564,20.564,0,0,0,2.4-.195c0.16-.019.86-0.081,1.04-0.085a4.745,4.745,0,0,1,4.48,3.63,5.292,5.292,0,0,1-3.51,6.586,18.719,18.719,0,0,1-5.07.674c-0.11,0-.29,0-0.39,0a0.168,0.168,0,0,0-.12.048,0.174,0.174,0,0,0-.05.119V972.1a2.255,2.255,0,0,0,2.25,2.253h15.17a2.257,2.257,0,0,0,2.26-2.253V955.691A2.256,2.256,0,0,0,1128.31,953.438Z" transform="translate(-1090.19 -923.938)"/>
  <path id="Forma_1_copy_12" data-name="Forma 1 copy 12" class="cls-1" d="M1173.52,962.3a3.156,3.156,0,0,0,.19-3.791l-3.73-5.158a4.84,4.84,0,0,0-3.29-1.972h-1.87a5.955,5.955,0,0,1,1.08.932l2.6,2.968a8.606,8.606,0,0,1,1.91,5.066v5.462Zm-22.16.756,1.54-2.02v6.79l-0.41,7.955h17.2l-0.15-15.3a7.457,7.457,0,0,0-1.61-4.264l-2.6-2.968a6.133,6.133,0,0,0-4.04-1.83h-5.95a2.414,2.414,0,0,0-2.13,1.279,3.008,3.008,0,0,0-.29.3l-5.06,6.609-8.19-1.663a2.434,2.434,0,1,0-.97,4.771l8.79,1.786A4.261,4.261,0,0,0,1151.36,963.055Zm12.44-5.768a1.019,1.019,0,1,1-1.01,1.018A1.015,1.015,0,0,1,1163.8,957.287Zm0,4.129a1.019,1.019,0,1,1-1.01,1.02A1.016,1.016,0,0,1,1163.8,961.416Zm-6.51-4.129a1.019,1.019,0,1,1-1.02,1.018A1.021,1.021,0,0,1,1157.29,957.287Zm0,4.129a1.019,1.019,0,1,1-1.02,1.02A1.022,1.022,0,0,1,1157.29,961.416Zm-4.47-18.485a7.51,7.51,0,1,0,13.4-4.652V930.26a8.509,8.509,0,1,0-11.77.289v7.729A7.44,7.44,0,0,0,1152.82,942.931Z" transform="translate(-1090.19 -923.938)"/>
  <path id="Forma_1_copy_12-2" data-name="Forma 1 copy 12" class="cls-1" d="M1132.67,975.031H1108l-2-.031v2h2v32h67.99l0.01-32h2v-2l-2.01.031h-43.32Z" transform="translate(-1090.19 -923.938)"/>
</svg>
