<svg xmlns="http://www.w3.org/2000/svg" width="18.188" height="12.56" viewBox="0 0 18.188 12.56">
  <defs>
    <style>
      .cls-1 {
        fill: #fff;
        fill-rule: evenodd;
      }
    </style>
  </defs>
  <path id="Forma_1" data-name="Forma 1" class="cls-1" d="M690.468,1022.93a10.711,10.711,0,0,1-3.568-3.43,10.751,10.751,0,0,1,9.1-4.9,9.565,9.565,0,0,1,2.518.28S690.781,1013.77,690.468,1022.93Zm3.012,1.19a9.591,9.591,0,0,0,2.522.28,10.751,10.751,0,0,0,9.1-4.9,10.751,10.751,0,0,0-3.572-3.43S702.511,1024.09,693.48,1024.12Zm-0.282-4.62a1.938,1.938,0,0,0,.07.63l0.629-.63a2.011,2.011,0,0,1,.63-1.47,2.139,2.139,0,0,1,1.471-.63l0.63-.63a1.938,1.938,0,0,0-.63-0.07A2.808,2.808,0,0,0,693.2,1019.5Zm8.392-6.29-11.876,11.88,0.692,0.7,11.88-11.89Zm-4.121,7.76a2.017,2.017,0,0,1-1.471.63l-0.629.63a1.932,1.932,0,0,0,.629.07,2.808,2.808,0,0,0,2.8-2.8,1.938,1.938,0,0,0-.07-0.63l-0.629.63A2.022,2.022,0,0,1,697.469,1020.97Z" transform="translate(-686.906 -1013.22)"/>
</svg>
