<svg xmlns="http://www.w3.org/2000/svg" width="28" height="28" viewBox="0 0 28 28">
  <defs>
    <style>
      .cls-1 {
        fill: #999;
        fill-rule: evenodd;
      }
    </style>
  </defs>
  <path id="google_" data-name="google+" class="cls-1" d="M1226,1650a14,14,0,1,0-14,14A14,14,0,0,0,1226,1650Zm-11.37-.62h-5.36v1.74h3.27a3.818,3.818,0,1,1-3.66-4.86,3.906,3.906,0,0,1,2.73,1.11l1.29-1.37a5.789,5.789,0,0,0-4.02-1.61,5.607,5.607,0,1,0,0,11.21,5.842,5.842,0,0,0,5.75-4.48v-1.74h0Zm7.23,0.35h-1.92v-1.92h-1.65v1.92h-1.93v1.65h1.93v1.93h1.65v-1.93h1.92v-1.65Z" transform="translate(-1198 -1636)"/>
</svg>
