<svg xmlns="http://www.w3.org/2000/svg" width="29.812" height="28.25" viewBox="0 0 29.812 28.25">
  <defs>
    <style>
      .cls-1 {
        fill: #96272c;
        fill-rule: evenodd;
      }
    </style>
  </defs>
  <path id="Forma_1" data-name="Forma 1" class="cls-1" d="M148.406,530.153l-0.012.069h0v2.019h26.211v-1.7l-0.026-.256a6.5,6.5,0,0,0-2.392-4.118,13.916,13.916,0,0,0-5.156-2.7,8.836,8.836,0,0,1-2.3,1.261,9.4,9.4,0,0,1-3.224.572,9.271,9.271,0,0,1-3.339-.611,8.762,8.762,0,0,1-2.367-1.359,13.227,13.227,0,0,0-5.155,2.62,6,6,0,0,0-2.239,4.118h0v0.088h0Zm13.1-24.783a8.619,8.619,0,0,1,6.114,2.511,8.187,8.187,0,0,1,0,11.644,8.714,8.714,0,0,1-12.242,0,8.187,8.187,0,0,1,0-11.644,8.653,8.653,0,0,1,6.128-2.511h0Zm4.694,3.359a6.594,6.594,0,0,0-9.4,0,7.068,7.068,0,0,0,0,9.949,6.594,6.594,0,0,0,9.4,0,7.068,7.068,0,0,0,0-9.949h0Zm-19.546,20.8a7.424,7.424,0,0,1,2.649-4.5,15.41,15.41,0,0,1,6.5-3.172l0.575-.138,0.384,0.364a7.063,7.063,0,0,0,2.2,1.359,7.207,7.207,0,0,0,5,.03,6.9,6.9,0,0,0,2.15-1.28l0.4-.345L167.084,522a16.166,16.166,0,0,1,6.447,3.25,7.976,7.976,0,0,1,2.738,4.285h0.141v4.1H146.59v-4.1h0.064Z" transform="translate(-146.594 -505.375)"/>
</svg>
