<svg xmlns="http://www.w3.org/2000/svg" width="24.312" height="25.531" viewBox="0 0 24.312 25.531">
  <defs>
    <style>
      .cls-1 {
        fill: #f3f3f3;
        fill-rule: evenodd;
      }
    </style>
  </defs>
  <path id="Forma_1" data-name="Forma 1" class="cls-1" d="M226.47,605.836c-3.551,0-6.428-3.449-6.428-7.7s2.877-7.4,6.428-7.4,6.431,3.152,6.431,7.4S230.021,605.836,226.47,605.836Zm-10,10.41a2.488,2.488,0,0,1-1.964-.737,2.234,2.234,0,0,1,.123-1.859l0.544-1.238a25.639,25.639,0,0,1,3.214-5.31,2.445,2.445,0,0,1,3.109-.534,8.427,8.427,0,0,1,1.473,1.3,4.774,4.774,0,0,0,3.2,1.119h1a4.769,4.769,0,0,0,3.2-1.119,8.99,8.99,0,0,1,1.452-1.334,2.237,2.237,0,0,1,2.9.564,22.284,22.284,0,0,1,3.067,5.37l0.557,1.215a2.237,2.237,0,0,1,.151,1.857,2.208,2.208,0,0,1-1.827.7h-20.2Z" transform="translate(-214.344 -590.719)"/>
</svg>
