<svg xmlns="http://www.w3.org/2000/svg" width="25.375" height="23.125" viewBox="0 0 25.375 23.125">
  <defs>
    <style>
      .cls-1 {
        fill: #f3f3f3;
        fill-rule: evenodd;
      }
    </style>
  </defs>
  <path id="Forma_1" data-name="Forma 1" class="cls-1" d="M212.61,808.543a8.007,8.007,0,0,1-.3-2.156,8.966,8.966,0,0,1,3.8-7.108,12.631,12.631,0,0,1,1.571-1.027,7.284,7.284,0,0,1,1.582-.746A15.581,15.581,0,0,1,225,796.441a14.609,14.609,0,0,1,8.884,2.838,8.966,8.966,0,0,1,3.8,7.108,8.794,8.794,0,0,1-3.141,6.561l-0.035,5.728a0.894,0.894,0,0,1-.425.745,0.783,0.783,0,0,1-.857.023l-6.153-3.244a16.316,16.316,0,0,1-2.074.133,14.6,14.6,0,0,1-8.884-2.838,10.139,10.139,0,0,1-2.861-3.326A6.933,6.933,0,0,1,212.61,808.543Zm20.5,3.329a0.878,0.878,0,0,0-.315.632c0,0.016,0,.032,0,0.048l-0.028,4.673-4.985-2.628a0.868,0.868,0,0,0-.659-0.17,14.487,14.487,0,0,1-2.125.156c-4.939,0-9.123-2.466-10.476-5.841-0.006-.016-0.013-0.032-0.02-0.049a8.6,8.6,0,0,1-.339-2.721c0-4.608,4.881-7.782,10.835-7.782s10.937,3.677,10.937,8.2A7.178,7.178,0,0,1,233.113,811.872Zm-2.977-8.416H219.863a0.875,0.875,0,0,0,0,1.749h10.273A0.875,0.875,0,0,0,230.136,803.456Zm0,3.96H219.863a0.875,0.875,0,0,0,0,1.75h10.273A0.875,0.875,0,0,0,230.136,807.416Zm0-3.96H219.863a0.875,0.875,0,0,0,0,1.749h10.273A0.875,0.875,0,0,0,230.136,803.456Zm0,3.96H219.863a0.875,0.875,0,0,0,0,1.75h10.273A0.875,0.875,0,0,0,230.136,807.416Z" transform="translate(-212.313 -796.438)"/>
</svg>
