<svg xmlns="http://www.w3.org/2000/svg" width="15" height="11" viewBox="0 0 15 11">
  <defs>
    <style>
      .cls-1 {
        fill: #96272c;
        fill-rule: evenodd;
      }
    </style>
  </defs>
  <path id="Forma_1" data-name="Forma 1" class="cls-1" d="M164.215,562.007h-11.43a1.72,1.72,0,0,0-1.779,1.649v7.688a1.719,1.719,0,0,0,1.779,1.648h11.43a1.719,1.719,0,0,0,1.779-1.648v-7.688A1.72,1.72,0,0,0,164.215,562.007Zm0,9.53h-11.43a0.249,0.249,0,0,1-.271-0.193v-6.672l5.17,4.212a0.6,0.6,0,0,0,.379.134h0.873a0.6,0.6,0,0,0,.38-0.134l5.17-4.212v6.672A0.249,0.249,0,0,1,164.215,571.537Zm-5.715-3.964-5.028-4.11h10.056Z" transform="translate(-151 -562)"/>
</svg>
