<svg xmlns="http://www.w3.org/2000/svg" width="47.937" height="16.03" viewBox="0 0 47.937 16.03">
  <defs>
    <style>
      .cls-1 {
        fill: #999;
        fill-rule: evenodd;
      }
    </style>
  </defs>
  <path id="anex" class="cls-1" d="M904.719,1708.54l1.971-2.07v4.21Zm-6.275-1.55v0.95h2.818v1.08h-2.818v1.04H901.6l1.467-1.54-1.4-1.53h-3.218Zm34.916,0.79a2.285,2.285,0,0,1,.639,1.72c0,1.58-1.084,2.52-2.9,2.52h-2.5a0.878,0.878,0,0,1-.815-0.52,3.39,3.39,0,0,1-1.93.52h-2.5a0.868,0.868,0,0,0-.77,0h-4.286a1.018,1.018,0,0,1-.391-0.09,0.849,0.849,0,0,1-.391.09h-1.288a0.871,0.871,0,0,1-.888-0.86v-0.77c0-.07,0-0.18,0-0.28-0.06,0-.144-0.01-0.262-0.01h-0.483v1.06a0.871,0.871,0,0,1-.888.86h-1.291a0.871,0.871,0,0,1-.887-0.86v-1.34a3.779,3.779,0,0,1-1.952.44h-0.713v0.9a0.871,0.871,0,0,1-.888.86h-2.5a0.881,0.881,0,0,1-.664-0.29l-0.93-1.02-0.98,1.04a0.886,0.886,0,0,1-.65.28h-5.087a0.879,0.879,0,0,1-.887-0.87v-5.26a0.879,0.879,0,0,1,.887-0.87h5.164a0.908,0.908,0,0,1,.66.29l0.932,1.02,0.973-1.03a0.886,0.886,0,0,1,.65-0.28h4.1a3.583,3.583,0,0,1,1.98.49,0.878,0.878,0,0,1,.784-0.49h2.966a4.134,4.134,0,0,1,1.963.35c0.065,0.04.11,0.09,0.17,0.13a0.888,0.888,0,0,1,.784-0.48h4.285a0.878,0.878,0,0,1,.764.46,3.01,3.01,0,0,1,1.69-.46H927.6a0.887,0.887,0,0,1,.827.58,2.938,2.938,0,0,1,1.846-.58h2.573a0.879,0.879,0,0,1,.887.87v1.12a0.854,0.854,0,0,1-.406.73Zm-21.553-.15c0-1.45-1.145-1.73-2.163-1.73h-4.1l-1.633,1.72-1.582-1.72h-5.164v5.26h5.087l1.643-1.74,1.582,1.74h2.5v-1.77h1.6C910.694,1709.39,911.807,1709.09,911.807,1707.63Zm4.864,1.09a1.487,1.487,0,0,0,.91-1.4,1.231,1.231,0,0,0-.66-1.17,3.246,3.246,0,0,0-1.545-.25H912.41v5.26H913.7v-1.92h1.371a1.255,1.255,0,0,1,.942.23,1.524,1.524,0,0,1,.209,1.03v0.66h1.288v-1.04a1.485,1.485,0,0,0-.213-0.96A1.321,1.321,0,0,0,916.671,1708.72Zm5.907-2.82h-4.285v5.26h4.285v-1.09l-3.007-.01v-1.04H922.5v-1.08h-2.933v-0.95h3.007v-1.09Zm5.286,3.6a1.464,1.464,0,0,0-.385-1.12,2.16,2.16,0,0,0-1.465-.42l-0.691-.02a1.42,1.42,0,0,1-.5-0.06,0.4,0.4,0,0,1-.281-0.39,0.4,0.4,0,0,1,.194-0.38,0.935,0.935,0,0,1,.515-0.1h2.355v-1.11h-2.573a1.581,1.581,0,0,0-1.836,1.56c0,1.66,1.5,1.59,2.7,1.63a0.637,0.637,0,0,1,.458.12,0.428,0.428,0,0,1,.156.34,0.465,0.465,0,0,1-.151.35,0.759,0.759,0,0,1-.524.13h-2.489v1.13h2.5C927.143,1711.16,927.864,1710.63,927.864,1709.5Zm5.248,0a1.472,1.472,0,0,0-.385-1.12,2.165,2.165,0,0,0-1.468-.42l-0.689-.02a1.422,1.422,0,0,1-.5-0.06,0.436,0.436,0,0,1-.086-0.77,0.927,0.927,0,0,1,.515-0.1h2.354v-1.11h-2.573a1.581,1.581,0,0,0-1.836,1.56c0,1.66,1.5,1.59,2.7,1.63a0.63,0.63,0,0,1,.457.12,0.425,0.425,0,0,1,.157.34,0.465,0.465,0,0,1-.151.35,0.754,0.754,0,0,1-.523.13H928.6v1.13h2.5C932.389,1711.16,933.112,1710.63,933.112,1709.5Zm-23.468-2.51H907.97v1.34h1.657a0.687,0.687,0,0,0,.8-0.7A0.646,0.646,0,0,0,909.644,1706.99Zm0.754-7.98a0.54,0.54,0,0,0,.264-0.5,0.485,0.485,0,0,0-.269-0.47,1.419,1.419,0,0,0-.608-0.09H908.2v1.17h1.561A1.265,1.265,0,0,0,910.4,1699.01Zm5.5,8.07a1.3,1.3,0,0,0-.613-0.09H913.7v1.18h1.56a1.259,1.259,0,0,0,.636-0.11,0.564,0.564,0,0,0,.265-0.5A0.514,0.514,0,0,0,915.9,1707.08Zm4.743-9.33-0.882,2.09h1.772Zm-31.353,2.09h1.751l-0.878-2.09Zm7.187,3.14a0.881,0.881,0,0,1-.811-0.52l-0.168-.37v0.02a0.879,0.879,0,0,1-.887.87h-2.612a0.9,0.9,0,0,1-.821-0.54l-0.267-.63h-1.488l-0.271.63a0.881,0.881,0,0,1-.817.54h-1.4a0.9,0.9,0,0,1-.741-0.39,0.852,0.852,0,0,1-.074-0.82l2.3-5.26a0.882,0.882,0,0,1,.816-0.52h1.906a0.881,0.881,0,0,1,.816.52l0.481,1.1v-0.76a0.877,0.877,0,0,1,.887-0.86h2.1a0.883,0.883,0,0,1,.8.5l0.84,1.79,0.763-1.76a0.873,0.873,0,0,1,.815-0.53h2.14a0.838,0.838,0,0,0,.957,0h4.289a0.84,0.84,0,0,1,.444.13,0.852,0.852,0,0,1,.446-0.13h2.953a3.856,3.856,0,0,1,2,.36c0.062,0.04.1,0.09,0.159,0.13a0.88,0.88,0,0,1,.79-0.49h1.311a0.867,0.867,0,0,1,.86.73,3.618,3.618,0,0,1,2.411-.73h1.241a0.913,0.913,0,0,0,1.061,0h1.925a0.878,0.878,0,0,1,.813.52l0.471,1.08v-0.74a0.877,0.877,0,0,1,.888-0.86h1.957a0.9,0.9,0,0,1,.759.42l0.609,0.99v-0.55a0.87,0.87,0,0,1,.888-0.86h1.314a0.871,0.871,0,0,1,.887.86v5.26a0.878,0.878,0,0,1-.887.87h-1.818a0.893,0.893,0,0,1-.761-0.42l-0.788-1.28v0.83a0.878,0.878,0,0,1-.887.87h-2.612a0.879,0.879,0,0,1-.819-0.54l-0.272-.63H919.9l-0.262.62a0.888,0.888,0,0,1-.819.55h-1.5a3.775,3.775,0,0,1-2.324-.7,0.876,0.876,0,0,1-.853.7h-1.311a0.917,0.917,0,0,1-.4-0.11,0.893,0.893,0,0,1-.4.11h-1.3a0.882,0.882,0,0,1-.888-0.86l-0.005-.67,0-.11c0-.07,0-0.18,0-0.27h-0.74v1.04a0.879,0.879,0,0,1-.887.87H906.92a0.858,0.858,0,0,1-.446-0.14,0.848,0.848,0,0,1-.444.14h-4.289a0.879,0.879,0,0,1-.478-0.16,0.888,0.888,0,0,1-.479.16h-1.316a0.878,0.878,0,0,1-.887-0.87v-0.02l-0.17.37a0.881,0.881,0,0,1-.811.52h-1.128Zm18.288-3.46a2.605,2.605,0,0,0,.689,2.01,2.76,2.76,0,0,0,1.859.58h1.5l0.483-1.17h2.668l0.5,1.17h2.613v-3.95l2.436,3.95h1.818v-5.26h-1.314v3.66l-2.256-3.66H923.8v4.97l-2.172-4.97h-1.925l-1.813,4.14h-0.576a1.3,1.3,0,0,1-.895-0.27,1.818,1.818,0,0,1-.354-1.24,1.713,1.713,0,0,1,.369-1.19,1.263,1.263,0,0,1,.988-0.31h1.216v-1.13H917.4a2.636,2.636,0,0,0-1.95.62A2.751,2.751,0,0,0,914.76,1699.52Zm2.669-.67a0.5,0.5,0,0,0-.369.06,1.28,1.28,0,0,0-.1.57,1.358,1.358,0,0,0,.1.62,1.246,1.246,0,0,0,.252.02l0.556-1.27h-0.439Zm-4.607,3.26h1.311v-5.26h-1.311v5.26Zm-5.9,0H908.2v-1.91h1.377a1.3,1.3,0,0,1,.936.22,1.574,1.574,0,0,1,.2,1.03l0.006,0.66h1.295v-1.03a1.512,1.512,0,0,0-.213-0.97,1.553,1.553,0,0,0-.635-0.44,1.476,1.476,0,0,0,.9-1.4,1.206,1.206,0,0,0-.649-1.16,3.023,3.023,0,0,0-1.555-.26h-2.953v5.26Zm-5.179,0h4.288v-1.09h-3v-1.05h2.935v-1.08h-2.935v-0.94h3v-1.1H901.74v5.26Zm-5.268,0H897.6l1.862-4.12,0,4.12h1.316v-5.26h-2.14l-1.543,3.57-1.68-3.57h-2.1v4.98l-2.185-4.98h-1.906l-2.3,5.26h1.395l0.5-1.17H891.5l0.493,1.17h2.614v-4.12Z" transform="translate(-886.063 -1696)"/>
</svg>
