<svg xmlns="http://www.w3.org/2000/svg" width="12.312" height="19.25" viewBox="0 0 12.312 19.25">
  <defs>
    <style>
      .cls-1 {
        fill: #fff;
        fill-rule: evenodd;
      }
    </style>
  </defs>
  <path id="location" class="cls-1" d="M641.5,369.626l-0.246-.435c-0.036-.062-3.565-6.286-4.546-8.108a10.954,10.954,0,0,1-1.35-4.572,6.141,6.141,0,1,1,12.282,0,10.729,10.729,0,0,1-1.32,4.57c-1.145,2-4.541,8.048-4.575,8.109Zm0-9.593a3.542,3.542,0,1,1,3.539-3.542A3.544,3.544,0,0,1,641.5,360.033Zm0-5.765a2.225,2.225,0,1,0,2.222,2.225A2.226,2.226,0,0,0,641.5,354.268Z" transform="translate(-635.344 -350.375)"/>
</svg>
