<svg xmlns="http://www.w3.org/2000/svg" width="24.44" height="24.438" viewBox="0 0 24.44 24.438">
  <defs>
    <style>
      .cls-1 {
        fill: #96272c;
        fill-rule: evenodd;
      }
    </style>
  </defs>
  <path id="Forma_1" data-name="Forma 1" class="cls-1" d="M1154.32,522.668a12.237,12.237,0,1,1-8.65-14.991A12.249,12.249,0,0,1,1154.32,522.668Zm-22.29-5.974a10.839,10.839,0,1,0,13.28-7.665A10.85,10.85,0,0,0,1132.03,516.694Zm16.74,0.332a0.69,0.69,0,0,1-.32.425l-4.6,2.654a0.7,0.7,0,0,1-.53.07l-6.67-5.055a0.7,0.7,0,1,1,.36-1.351l6.39,4.98,4.35-2.509a0.692,0.692,0,0,1,.95.256A0.666,0.666,0,0,1,1148.77,517.026Z" transform="translate(-1130.28 -507.281)"/>
</svg>
