<svg xmlns="http://www.w3.org/2000/svg" width="48" height="29" viewBox="0 0 48 29">
  <defs>
    <style>
      .cls-1 {
        fill: #999;
        fill-rule: evenodd;
      }
    </style>
  </defs>
  <path id="Forma_1" data-name="Forma 1" class="cls-1" d="M791.8,1712.14a0.477,0.477,0,0,0-.228-0.06,0.471,0.471,0,0,0-.228.06,0.445,0.445,0,0,0-.174.17,0.472,0.472,0,0,0-.062.24,0.485,0.485,0,0,0,.062.23,0.46,0.46,0,0,0,.172.17,0.48,0.48,0,0,0,.232.06,0.473,0.473,0,0,0,.23-0.06,0.45,0.45,0,0,0,.171-0.17,0.473,0.473,0,0,0,.062-0.23,0.493,0.493,0,0,0-.062-0.24A0.454,0.454,0,0,0,791.8,1712.14Zm-0.11.67-0.044-.08a0.289,0.289,0,0,0-.085-0.12,0.11,0.11,0,0,0-.064-0.02h-0.047v0.21h-0.081v-0.5h0.172a0.4,0.4,0,0,1,.126.01,0.141,0.141,0,0,1,.064.05,0.153,0.153,0,0,1,.023.08,0.123,0.123,0,0,1-.038.09,0.137,0.137,0,0,1-.105.05,0.228,0.228,0,0,1,.043.03,0.473,0.473,0,0,1,.074.1l0.061,0.1h-0.1Zm-0.048-.31a0.191,0.191,0,0,1-.1.02h-0.1v-0.15h0.092a0.165,0.165,0,0,1,.08.01,0.051,0.051,0,0,1,.035.02,0.109,0.109,0,0,1,.011.04A0.062,0.062,0,0,1,791.639,1712.5Zm-0.457-5.09a0.343,0.343,0,0,0-.145.14,0.426,0.426,0,0,0-.052.2,0.38,0.38,0,0,0,.05.19,0.461,0.461,0,0,0,.145.15,0.439,0.439,0,0,0,.192.05,0.432,0.432,0,0,0,.192-0.05,0.451,0.451,0,0,0,.145-0.15,0.36,0.36,0,0,0,.05-0.19,0.426,0.426,0,0,0-.052-0.2,0.343,0.343,0,0,0-.145-0.14,0.331,0.331,0,0,0-.19-0.05A0.335,0.335,0,0,0,791.182,1707.41Zm0.351,0.16a0.1,0.1,0,0,1,.023.07,0.144,0.144,0,0,1-.04.1,0.171,0.171,0,0,1-.1.04,0.152,0.152,0,0,1,.042.03,0.441,0.441,0,0,1,.074.1l0.062,0.09h-0.1l-0.045-.07a0.292,0.292,0,0,0-.083-0.12,0.12,0.12,0,0,0-.066-0.02h-0.046V1708h-0.083v-0.5h0.173a0.358,0.358,0,0,1,.127.02A0.083,0.083,0,0,1,791.533,1707.57Zm-0.191,0a0.168,0.168,0,0,1,.081.01,0.145,0.145,0,0,1,.034.02,0.1,0.1,0,0,1,.013.05,0.061,0.061,0,0,1-.024.05,0.129,0.129,0,0,1-.1.02h-0.1v-0.15h0.09Zm-10.618-2.07a0.98,0.98,0,0,1,.333.03c0.029,0.26-.161,1.48-1.082,1.48a0.561,0.561,0,0,1-.6-0.58C779.376,1706,779.6,1705.5,780.724,1705.5Zm-24.8,0a0.98,0.98,0,0,1,.333.03c0.029,0.26-.162,1.48-1.083,1.48a0.562,0.562,0,0,1-.6-0.58C754.573,1706,754.8,1705.5,755.922,1705.5Zm22.714-15.5a14.234,14.234,0,0,0-9.638,3.75,14.234,14.234,0,0,0-9.634-3.75h-0.092a14.5,14.5,0,0,0,.092,28.99,14.225,14.225,0,0,0,9.633-3.74,14.113,14.113,0,0,1-1.469-1.59H770.5a13.736,13.736,0,0,1-1.459,1.56h0l-0.037.03a14.255,14.255,0,0,0,9.646,3.75,14.436,14.436,0,0,0,14.366-14.5v-0.01A14.434,14.434,0,0,0,778.636,1690Zm-10.944,5.25h2.731a14.842,14.842,0,0,1,1.115,1.55h-4.872C766.979,1696.28,767.325,1695.75,767.692,1695.25Zm-1.875,3.07h6.55a15.171,15.171,0,0,1,.62,1.55h-7.946C765.12,1699.72,765.4,1699.12,765.817,1698.32Zm-14.957,9.87,0.871-5.54-1.966,5.54h-1.054l-0.137-5.54-0.93,5.54h-1.477l1.224-7.35h2.232l0.079,4.51,1.508-4.51h2.422l-1.207,7.35H750.86Zm5.219-.01,0.051-.59a1.956,1.956,0,0,1-1.569.71,1.457,1.457,0,0,1-1.478-1.66c0-1.72,1.39-2.29,2.714-2.29,0.208,0,.657.04,0.657,0.04a1.034,1.034,0,0,0,.051-0.39c0-.47-0.417-0.53-0.987-0.53a4.829,4.829,0,0,0-1.668.27l0.223-1.33a5.251,5.251,0,0,1,1.853-.34,1.814,1.814,0,0,1,2.1,1.86l-0.6,4.25h-1.348Zm5.7-1.87a1.973,1.973,0,0,1-2.314,1.96,4.858,4.858,0,0,1-1.717-.19l0.2-1.35a4.776,4.776,0,0,0,1.359.24c0.413,0,.948-0.04.948-0.54,0-.75-1.915-0.57-1.915-2.33,0-1.56,1.147-2.02,2.28-2.02a7.127,7.127,0,0,1,1.411.12l-0.193,1.36s-0.83-.06-1.045-0.06c-0.544,0-.84.12-0.84,0.5C759.951,1704.77,761.774,1704.39,761.774,1706.31Zm2.365,0.53c0.136,0,.29-0.04.395-0.04l-0.192,1.31a3.9,3.9,0,0,1-1.146.2,1.133,1.133,0,0,1-1.22-1.3c0-.62.869-5.66,0.9-5.69h1.53l-0.156.9h0.764l-0.2,1.45h-0.81l-0.43,2.68C763.548,1706.56,763.607,1706.84,764.139,1706.84Zm3.365-4.79a2.06,2.06,0,0,1,2.181,2.25,11.112,11.112,0,0,1-.2,1.41h-3.108s-0.288,1.24,1.355,1.24a4.735,4.735,0,0,0,1.625-.38l-0.27,1.49a3.907,3.907,0,0,1-1.616.25,2.412,2.412,0,0,1-2.643-2.7C764.827,1703.72,765.965,1702.05,767.5,1702.05Zm4.053,10.12h-5.1a14.153,14.153,0,0,1-.848-1.55h6.783A14.238,14.238,0,0,1,771.557,1712.17Zm-0.342-3.97h-1.57l0.954-5.98h1.425l-0.137.87a1.779,1.779,0,0,1,1.193-.95,1.62,1.62,0,0,1,.295.02,6.114,6.114,0,0,0-.569,1.79C771.744,1703.57,771.662,1705.65,771.215,1708.2Zm5.983-.09a7.067,7.067,0,0,1-1.338.21c-1.826,0-2.753-1.27-2.753-3.19,0-2.91,1.718-4.45,3.483-4.45a5.546,5.546,0,0,1,1.724.37l-0.25,1.64a2.715,2.715,0,0,0-1.4-.44c-1.041,0-1.975,1-1.975,2.82a1.528,1.528,0,0,0,1.522,1.74,3.642,3.642,0,0,0,1.265-.38Zm3.683,0.07,0.051-.59a1.958,1.958,0,0,1-1.569.71,1.457,1.457,0,0,1-1.477-1.66c0-1.72,1.39-2.29,2.712-2.29,0.209,0,.659.04,0.659,0.04a1.034,1.034,0,0,0,.051-0.39c0-.47-0.416-0.53-0.987-0.53a4.819,4.819,0,0,0-1.667.27l0.222-1.33a5.254,5.254,0,0,1,1.854-.34,1.814,1.814,0,0,1,2.1,1.86l-0.6,4.25h-1.349Zm3.18,0.02H782.49l0.955-5.98h1.425l-0.137.87a1.785,1.785,0,0,1,1.194-.95,1.6,1.6,0,0,1,.294.02,6.114,6.114,0,0,0-.569,1.79C784.589,1703.57,784.508,1705.65,784.061,1708.2Zm7.714-.69a0.511,0.511,0,0,1,.062.24,0.446,0.446,0,0,1-.062.23,0.446,0.446,0,0,1-.4.24,0.443,0.443,0,0,1-.4-0.24,0.456,0.456,0,0,1-.062-0.23,0.523,0.523,0,0,1,.062-0.24,0.47,0.47,0,0,1,.173-0.17,0.48,0.48,0,0,1,.228-0.06,0.468,0.468,0,0,1,.228.06A0.441,0.441,0,0,1,791.775,1707.51Zm-2.233-4.59,0.331-2.07h1.534l-1.17,7.34h-1.488l0.067-.55a1.91,1.91,0,0,1-1.425.64c-1.272,0-1.9-1.24-1.9-2.5,0-1.96,1.168-3.67,2.57-3.67A2.014,2.014,0,0,1,789.542,1702.92Zm-21.328,1.57h-1.7a1.114,1.114,0,0,1,.994-1.06C768.374,1703.43,768.214,1704.41,768.214,1704.49Zm20.115-.89c0.55,0,.833.38,0.833,1.28,0,0.81-.4,1.9-1.229,1.9-0.551,0-.809-0.47-0.809-1.2C787.124,1704.39,787.656,1703.6,788.329,1703.6Z" transform="translate(-745 -1690)"/>
</svg>
