<svg xmlns="http://www.w3.org/2000/svg" width="10.313" height="10.281" viewBox="0 0 10.313 10.281">
  <defs>
    <style>
      .cls-1 {
        fill: #999;
        fill-rule: evenodd;
      }
    </style>
  </defs>
  <path id="edit.svg" class="cls-1" d="M342.361,289.464l-0.828.828-2.306-2.3,0.828-.828a0.625,0.625,0,0,1,.874-0.072l1.5,1.5A0.625,0.625,0,0,1,342.361,289.464Zm-7.475,2.861,3.956-3.954,2.307,2.305-5.5,5.5a0.447,0.447,0,0,1-.194.12l-0.034.014-2.871.914a0.2,0.2,0,0,1-.257-0.257l0.915-2.868a0.345,0.345,0,0,1,.014-0.034,0.434,0.434,0,0,1,.12-0.194l1.034-1.033ZM334.939,296l-1.42-1.419-0.381,1.195,0.606,0.605Zm3.814-6.709a0.208,0.208,0,0,0-.295,0l-4.288,4.285a0.209,0.209,0,1,0,.3.3l4.287-4.286A0.208,0.208,0,0,0,338.753,289.287Z" transform="translate(-332.281 -286.938)"/>
</svg>
