<svg xmlns="http://www.w3.org/2000/svg" width="31" height="32" viewBox="0 0 31 32">
  <defs>
    <style>
      .cls-1 {
        fill: #96272c;
        fill-rule: evenodd;
      }
    </style>
  </defs>
  <path id="Forma_1" data-name="Forma 1" class="cls-1" d="M166.976,600.787H153.231a0.7,0.7,0,0,1,0-1.39h13.745A0.7,0.7,0,0,1,166.976,600.787ZM163.7,603.9H153.231a0.7,0.7,0,0,1,0-1.39H163.7A0.7,0.7,0,0,1,163.7,603.9Zm-7,9.344h-3.464a0.7,0.7,0,0,1,0-1.39H156.7A0.7,0.7,0,0,1,156.7,613.246Zm-1.5,3.115h-1.962a0.7,0.7,0,0,1,0-1.39h1.962A0.7,0.7,0,0,1,155.193,616.361Zm24.065-22.138-1.571-1.182a1.834,1.834,0,0,0-2.585.38h0l-3.9,5.326v-5.289a0.691,0.691,0,0,0-.688-0.695h-2.854V591.7a0.689,0.689,0,1,0-1.377,0v1.068h-2.06V591.7a0.689,0.689,0,1,0-1.377,0v1.068h-2.059V591.7a0.689,0.689,0,1,0-1.377,0v1.068h-2.059V591.7a0.689,0.689,0,1,0-1.377,0v1.068H153.92V591.7a0.689,0.689,0,1,0-1.377,0v1.068h-2.854a0.692,0.692,0,0,0-.689.695V622.3a0.692,0.692,0,0,0,.689.7h20.83a0.692,0.692,0,0,0,.689-0.7V608.432l8.426-11.6h0A1.877,1.877,0,0,0,179.258,594.223ZM169.83,621.61H150.377V594.153h2.166v1.068a0.689,0.689,0,1,0,1.377,0v-1.068h2.059v1.068a0.689,0.689,0,1,0,1.377,0v-1.068h2.059v1.068a0.689,0.689,0,1,0,1.377,0v-1.068h2.059v1.068a0.689,0.689,0,1,0,1.378,0v-1.068h2.059v1.068a0.689,0.689,0,1,0,1.377,0v-1.068h2.165v6.5l-3.591,4.973H153.231a0.7,0.7,0,0,0,0,1.39h12l-3.916,5.422h0a0.689,0.689,0,0,0-.1.211l-1.575,5.436h-6.411a0.695,0.695,0,0,0,0,1.389h6.938a0.687,0.687,0,0,0,.363-0.111l5.147-3.357a0.68,0.68,0,0,0,.178-0.168l3.973-5.5V621.61h0ZM162.26,614l1.839,1.383-2.761,1.8Zm2.9,0.447-2.324-1.748L173.7,597.66l2.323,1.749Zm11.679-16.157-2.324-1.748,0.742-1,2.323,1.749ZM178.53,596h0l-0.127.172-2.323-1.748,0.127-.172h0a0.467,0.467,0,0,1,.309-0.185,0.462,0.462,0,0,1,.348.089l1.571,1.182A0.476,0.476,0,0,1,178.53,596Z" transform="translate(-149 -591)"/>
</svg>
