<svg xmlns="http://www.w3.org/2000/svg" width="24.5" height="24.5" viewBox="0 0 24.5 24.5">
  <defs>
    <style>
      .cls-1 {
        fill: #96272c;
        fill-rule: evenodd;
      }
    </style>
  </defs>
  <path id="Forma_1" data-name="Forma 1" class="cls-1" d="M947.09,525.11h-2.04v2.04h2.04v-2.04Zm-3.57-7.14h-2.04v2.04h2.04v-2.04Zm3.57,3.57h-2.04v2.04h2.04v-2.04Zm0-3.57h-2.04v2.04h2.04v-2.04Zm3.57,0h-2.04v2.04h2.04v-2.04Zm0,3.57h-2.04v2.04h2.04v-2.04Zm-7.14,0h-2.04v2.04h2.04v-2.04Zm-3.57-3.57h-2.04v2.04h2.04v-2.04Zm-3.57,3.57h-2.04v2.04h2.04v-2.04Zm3.57,3.57h-2.04v2.04h2.04v-2.04Zm-3.57,0h-2.04v2.04h2.04v-2.04Zm3.57-3.57h-2.04v2.04h2.04v-2.04Zm3.57,3.57h-2.04v2.04h2.04v-2.04Zm6.63-15.81v-2.04h-1.02v2.04H935.87v-2.04h-1.02v2.04h-4.59v22.44h24.48V509.3h-4.59Zm3.57,21.42H931.28v-15.3h22.44v15.3Zm0-16.32H931.28v-4.08h3.57v1.02h1.02v-1.02h13.26v1.02h1.02v-1.02h3.57v4.08Z" transform="translate(-930.25 -507.25)"/>
</svg>
