<svg xmlns="http://www.w3.org/2000/svg" width="16.188" height="25.343" viewBox="0 0 16.188 25.343">
  <defs>
    <style>
      .cls-1 {
        fill: #96272c;
        fill-rule: evenodd;
      }
    </style>
  </defs>
  <path id="location" class="cls-1" d="M414.5,475.671l-0.325-.572c-0.046-.083-4.69-8.272-5.981-10.67a14.414,14.414,0,0,1-1.776-6.014,8.08,8.08,0,1,1,16.16,0,14.112,14.112,0,0,1-1.736,6.012c-1.507,2.629-5.975,10.59-6.02,10.67Zm0-24.6a7.349,7.349,0,0,0-7.337,7.345,13.749,13.749,0,0,0,1.687,5.662c1.087,2.019,4.566,8.17,5.648,10.082,1.059-1.885,4.431-7.885,5.7-10.1a13.473,13.473,0,0,0,1.638-5.643A7.349,7.349,0,0,0,414.5,451.07Zm0,10.99a3.67,3.67,0,1,1,3.666-3.67A3.672,3.672,0,0,1,414.5,462.06Zm0-6.6a2.927,2.927,0,1,0,2.923,2.927A2.93,2.93,0,0,0,414.5,455.463Z" transform="translate(-406.406 -450.313)"/>
</svg>
